<svg width="24" height="24" viewBox="0 0 24 24" fill="none" xmlns="http://www.w3.org/2000/svg">
<path d="M10.3333 20.6666H21.3333C22.806 20.6666 24 19.4726 24 17.6666V13.6666H10.3333V20.6666ZM21.3333 3.33325H10.3333V10.3333H24V5.99992C24 5.29267 23.719 4.6144 23.219 4.1143C22.7189 3.6142 22.0406 3.33325 21.3333 3.33325ZM7 3.33325H2.66667C1.95977 3.33325 1.28179 3.61393 0.781755 4.11359C0.281716 4.61326 0.000530173 5.29102 0 5.99792L0 10.3333H7V3.33325ZM0 13.6666V17.6693C0.00133333 19.4739 1.19467 20.6666 2.66667 20.6666H7V13.6666H0Z" fill="#006AA7"/>
<path d="M10.3333 3.33325H7V10.3333H0V13.6666H7V20.6666H10.3333V13.6666H24V10.3333H10.3333V3.33325Z" fill="#FECC00"/>
</svg>
