<svg width="24" height="24" viewBox="0 0 24 24" fill="none" xmlns="http://www.w3.org/2000/svg">
<path d="M2.66667 3.33331C1.95942 3.33331 1.28115 3.61426 0.781049 4.11436C0.280952 4.61446 0 5.29274 0 5.99998L0 18C0 18.7072 0.280952 19.3855 0.781049 19.8856C1.28115 20.3857 1.95942 20.6666 2.66667 20.6666H6.66667V3.33331H2.66667ZM21.3333 3.33331H17.3333V20.6666H21.3333C22.0406 20.6666 22.7189 20.3857 23.219 19.8856C23.719 19.3855 24 18.7072 24 18V5.99998C24 5.29274 23.719 4.61446 23.219 4.11436C22.7189 3.61426 22.0406 3.33331 21.3333 3.33331Z" fill="#D52B1E"/>
<path d="M6.66663 3.33331H17.3333V20.6666H6.66663V3.33331Z" fill="#EEEEEE"/>
<path d="M12.41 14.742C13.2086 14.8347 13.9246 14.918 14.7226 15.0094L14.5193 14.3414C14.5043 14.2839 14.5064 14.2233 14.5252 14.167C14.544 14.1106 14.5788 14.061 14.6253 14.024L16.9446 12.1347L16.4646 11.9087C16.2533 11.8334 16.3113 11.714 16.388 11.4274L16.742 10.1367L15.3946 10.4214C15.2633 10.4414 15.176 10.358 15.156 10.278L14.982 9.67068L13.9166 10.8667C13.7653 11.0587 13.4586 11.0587 13.554 10.616L14.0093 8.19335L13.398 8.51002C13.2266 8.60602 13.0553 8.62202 12.96 8.45068L12.1166 6.87335L11.2733 8.45068C11.1773 8.62202 11.006 8.60602 10.8346 8.51002L10.224 8.19335L10.6793 10.616C10.7753 11.0587 10.468 11.0587 10.3166 10.8667L9.2513 9.67135L9.07796 10.2787C9.05796 10.3587 8.96996 10.442 8.83863 10.422L7.4913 10.1374L7.8453 11.428C7.92063 11.7147 7.9793 11.834 7.76796 11.9094L7.28796 12.1354L9.6073 14.0247C9.6993 14.096 9.74596 14.2247 9.71263 14.342L9.5093 15.01L11.8226 14.7427C11.8933 14.7427 11.94 14.782 11.9393 14.8634L11.7966 17.3327H12.434L12.292 14.8634C12.2933 14.7814 12.3393 14.742 12.41 14.742Z" fill="#D52B1E"/>
</svg>
