<svg width="20" height="20" viewBox="0 0 20 20" fill="none" xmlns="http://www.w3.org/2000/svg">
<path d="M3.77313 14.375L1.45831 16.7559M5.62498 16.2797L4.23609 17.7083M2.29165 10.2083C2.29165 10.2083 5.43329 11.6833 6.87498 13.125C8.31667 14.5667 9.79165 17.7083 9.79165 17.7083L11.7497 15.8901C12.361 15.3225 12.7083 14.526 12.7083 13.6918V12.5C16.0416 10.8333 18.125 8.12498 17.7083 2.29165C11.875 1.87499 9.16665 3.95833 7.49998 7.29166H6.30819C5.47398 7.29166 4.67744 7.63901 4.10981 8.25031L2.29165 10.2083ZM14.375 7.08332C14.375 7.88873 13.7221 8.54165 12.9166 8.54165C12.1112 8.54165 11.4583 7.88873 11.4583 7.08332C11.4583 6.2779 12.1112 5.62498 12.9166 5.62498C13.7221 5.62498 14.375 6.2779 14.375 7.08332Z" stroke="#1074C6" stroke-width="1.5" stroke-linecap="round" stroke-linejoin="round"/>
</svg>
