<svg width="24" height="24" viewBox="0 0 24 24" fill="none" xmlns="http://www.w3.org/2000/svg">
<path d="M24 18C24 18.7073 23.719 19.3855 23.219 19.8856C22.7189 20.3857 22.0406 20.6667 21.3333 20.6667H2.66667C1.95942 20.6667 1.28115 20.3857 0.781049 19.8856C0.280952 19.3855 0 18.7073 0 18V6.00001C0 5.29277 0.280952 4.61449 0.781049 4.11439C1.28115 3.61429 1.95942 3.33334 2.66667 3.33334H21.3333C22.0406 3.33334 22.7189 3.61429 23.219 4.11439C23.719 4.61449 24 5.29277 24 6.00001V18Z" fill="#006600"/>
<path d="M21.3333 3.33334H10V20.6667H21.3333C22.0406 20.6667 22.7189 20.3857 23.219 19.8856C23.719 19.3855 24 18.7073 24 18V6.00001C24 5.29277 23.719 4.61449 23.219 4.11439C22.7189 3.61429 22.0406 3.33334 21.3333 3.33334Z" fill="#D52B1E"/>
<path d="M9.99996 6.66666C8.58547 6.66666 7.22892 7.22856 6.22872 8.22875C5.22853 9.22895 4.66663 10.5855 4.66663 12C4.66663 13.4145 5.22853 14.771 6.22872 15.7712C7.22892 16.7714 8.58547 17.3333 9.99996 17.3333C11.4144 17.3333 12.771 16.7714 13.7712 15.7712C14.7714 14.771 15.3333 13.4145 15.3333 12C15.3333 10.5855 14.7714 9.22895 13.7712 8.22875C12.771 7.22856 11.4144 6.66666 9.99996 6.66666ZM5.92463 9.72932L6.99263 10.7973L5.35263 11.6173C5.40555 10.9542 5.60064 10.3103 5.92463 9.72932ZM5.35263 12.382L8.28596 13.8533L6.48196 15.056L6.49129 15.07C5.83255 14.3198 5.43324 13.3771 5.35263 12.382ZM9.33329 16.6133C8.72216 16.5261 8.13465 16.3176 7.60529 16H9.33329V16.6133ZM9.33329 15.3333H7.26729L9.33329 13.956V15.3333ZM9.33329 13.1547L8.92863 13.4247L6.07863 12L7.48929 11.2947L9.33329 13.138V13.1547ZM9.33329 12.1953L6.97129 9.83332L9.33329 10.2267V12.1953ZM9.33329 9.53399L6.37863 9.05866C7.11794 8.14927 8.17305 7.5522 9.33329 7.38666V9.53399ZM14.0753 9.72932C14.3994 10.3105 14.5945 10.9547 14.6473 11.618L13.0073 10.798L14.0753 9.72932ZM10.6666 7.38666C11.8268 7.55245 12.8818 8.14947 13.6213 9.05866L10.6666 9.53399V7.38666ZM10.6666 10.2267L13.0286 9.83266L10.6666 12.1953V10.2267ZM10.6666 13.138L12.51 11.2947L13.9213 12L11.072 13.4247L10.6666 13.1547V13.138ZM10.6666 16.6133V16H12.3946C11.8653 16.3176 11.2778 16.5261 10.6666 16.6133ZM10.6666 15.3333V13.956L12.7326 15.3333H10.6666ZM13.5093 15.07L13.5186 15.056L11.7146 13.8533L14.648 12.382C14.5667 13.377 14.1675 14.3194 13.5093 15.07Z" fill="#FFCC4D"/>
<path d="M7.33337 8.66666V13.3333C7.33337 14.0406 7.61433 14.7188 8.11442 15.2189C8.61452 15.719 9.2928 16 10 16C10.7073 16 11.3856 15.719 11.8857 15.2189C12.3858 14.7188 12.6667 14.0406 12.6667 13.3333V8.66666H7.33337Z" fill="#D52B1E"/>
<path d="M8 9.33334V13.3333C8 13.8638 8.21071 14.3725 8.58579 14.7476C8.96086 15.1226 9.46957 15.3333 10 15.3333C10.5304 15.3333 11.0391 15.1226 11.4142 14.7476C11.7893 14.3725 12 13.8638 12 13.3333V9.33334H8Z" fill="white"/>
<path d="M8.66663 11.3333H11.3333V12.6667H8.66663V11.3333Z" fill="#829ACD"/>
<path d="M9.33337 10.6667H10.6667V13.3333H9.33337V10.6667Z" fill="#829ACD"/>
<path d="M8 11.3333H8.66667V12.6667H8V11.3333ZM9.33333 11.3333H10.6667V12.6667H9.33333V11.3333ZM11.3333 11.3333H12V12.6667H11.3333V11.3333ZM9.33333 13.3333H10.6667V14.6667H9.33333V13.3333ZM9.33333 9.33334H10.6667V10.6667H9.33333V9.33334Z" fill="#003399"/>
</svg>
